<svg id="eye" xmlns="http://www.w3.org/2000/svg" width="19.882" height="11.852" viewBox="0 0 19.882 11.852">
  <path id="Trazado_6" data-name="Trazado 6" d="M9.941,98.725c-3.8,0-7.244,2.078-9.786,5.454a.787.787,0,0,0,0,.94c2.542,3.38,5.987,5.458,9.786,5.458s7.244-2.078,9.786-5.454a.787.787,0,0,0,0-.94C17.185,100.8,13.74,98.725,9.941,98.725Zm.273,10.1a4.182,4.182,0,1,1,3.9-3.9A4.184,4.184,0,0,1,10.214,108.824Zm-.126-1.928a2.252,2.252,0,1,1,2.1-2.1A2.248,2.248,0,0,1,10.088,106.9Z" transform="translate(0 -98.725)" fill="#7d7d7d"/>
</svg>
