<svg xmlns="http://www.w3.org/2000/svg" width="17.373" height="17.53" viewBox="0 0 17.373 17.53">
  <path id="office-push-pin" d="M18.106,5.021,13.218.133a.452.452,0,0,0-.639,0l-.021.021a1.586,1.586,0,0,0-.267,1.889L7.177,6.432a2.134,2.134,0,0,0-2.93.084l-.031.031a.452.452,0,0,0,0,.639l2.928,2.928L4.293,12.966c-.057.059-1.407,1.45-2.294,2.557C1.153,16.577.986,16.77.978,16.78a.452.452,0,0,0,.638.638c.008-.007.2-.17,1.257-1.021,1.107-.887,2.5-2.238,2.561-2.3l2.847-2.847,2.771,2.771a.452.452,0,0,0,.639,0l.031-.031a2.134,2.134,0,0,0,.084-2.93L16.2,5.948a1.586,1.586,0,0,0,1.889-.267l.021-.021A.452.452,0,0,0,18.106,5.021Z" transform="translate(-0.865 0)" fill="#7d7d7d"/>
</svg>
