<svg id="share" xmlns="http://www.w3.org/2000/svg" width="16.764" height="17.882" viewBox="0 0 16.764 17.882">
  <g id="Grupo_4" data-name="Grupo 4" transform="translate(0)">
    <path id="Trazado_7" data-name="Trazado 7" d="M29.621,11.6a3.132,3.132,0,0,0-2.52,1.284l-4.954-2.537a2.966,2.966,0,0,0-.092-2.052l5.185-3.12a3.126,3.126,0,1,0-.761-2.027,3.114,3.114,0,0,0,.219,1.13L21.5,7.4a3.138,3.138,0,1,0,.2,3.885l4.938,2.528a3.1,3.1,0,0,0-.154.922A3.143,3.143,0,1,0,29.621,11.6Z" transform="translate(-16)" fill="#7d7d7d"/>
  </g>
</svg>
